<svg width="56" height="56" viewBox="0 0 56 56" fill="none" xmlns="http://www.w3.org/2000/svg">
<g clip-path="url(#clip0_1_77)">
<path d="M28 56C43.464 56 56 43.464 56 28C56 12.536 43.464 0 28 0C12.536 0 0 12.536 0 28C0 43.464 12.536 56 28 56Z" fill="#0098EA"/>
<path d="M28.0001 20.1436L27.8944 20.1429V20.1441L27.8475 20.1441C25.8408 20.1441 24.1208 20.4509 24.1208 24.4381L24.1208 35.7127C24.1208 36.2614 23.7058 36.7061 23.1939 36.7061H20.1741C19.6622 36.7061 19.2475 36.2631 19.2491 35.7145C19.257 32.9581 19.3002 25.1779 19.5338 21.6778C19.6226 20.3483 19.9313 19.3128 20.3151 18.5167C20.7369 17.6419 20.2465 15.9842 19.328 16.0001C18.573 16.0132 17.684 16.0581 16.6671 16.157C13.0973 16.5043 12.4209 20.9704 12.3702 21.3459C12.3678 21.3646 12.3664 21.3796 12.3653 21.3985C12.3308 21.9421 11.8029 30.4339 12.0802 35.4793C12.3535 40.4474 16.2705 40.9602 16.6393 40.9975C16.6572 40.9993 16.6729 40.9999 16.6903 41C16.6903 41 16.6903 41 16.6903 41C16.6928 41 16.6954 41 16.6979 41H39.3021C39.3226 41 39.3403 40.9995 39.3607 40.9975C39.7295 40.9602 43.6465 40.4474 43.9198 35.4793C44.1971 30.4339 43.6692 21.9421 43.6347 21.3985C43.6336 21.3796 43.6322 21.3646 43.6298 21.3459C43.5791 20.9704 42.9027 16.5043 39.3329 16.157C38.316 16.0581 37.427 16.0132 36.672 16.0001C35.7535 15.9842 35.2631 17.6419 35.6849 18.5167C36.0687 19.3128 36.3774 20.3483 36.4662 21.6778C36.6998 25.1779 36.743 32.9581 36.7509 35.7145C36.7525 36.2631 36.3378 36.7061 35.8259 36.7061H32.8061C32.2942 36.7061 31.8792 36.2614 31.8792 35.7127V24.4381C31.8792 20.4509 30.1592 20.1441 28.1525 20.1441L28.1056 20.1441V20.1429L28.0001 20.1436Z" fill="white"/>
</g>
<defs>
<clipPath id="clip0_1_77">
<rect width="56" height="56" fill="white"/>
</clipPath>
</defs>
</svg>
