<svg width="195" height="40" viewBox="0 0 195 40" fill="none" xmlns="http://www.w3.org/2000/svg">
<path d="M8.06452 7.35384H0.137005C0.631544 5.83125 2.49811 1 6.2724 1H32.7061C32.7061 1 39.4265 1.45385 39.8746 9.16922C40.3226 16.8846 39.4265 30.0461 39.4265 30.0461C39.4265 30.0461 38.5305 37.2249 32.7061 37.7615C26.8817 38.2981 23.7455 37.7615 23.7455 37.7615C23.7455 37.7615 27.7778 35.9461 28.2258 29.5923C28.6738 23.2384 28.6738 7.35384 28.6738 7.35384H21.0573V25.5077C21.0573 31.4077 18.3692 31.8615 15.233 31.8615C12.0968 31.8615 8.06452 32.3154 8.06452 25.5077V7.35384Z" fill="#B0ED01"/>
<path d="M76.668 34.26L53.232 13.092L55.038 14.1L55.164 33H48.99V0.869998H49.242L72.174 21.954L70.83 21.366L70.704 2.088H76.836V34.26H76.668ZM90.2566 21.576C90.2566 22.556 90.5506 23.494 91.1386 24.39C91.7266 25.286 92.4966 26.014 93.4486 26.574C94.4286 27.134 95.4926 27.414 96.6406 27.414C97.9006 27.414 99.0206 27.134 100.001 26.574C100.981 26.014 101.751 25.286 102.311 24.39C102.899 23.494 103.193 22.556 103.193 21.576V2.088H109.199V21.702C109.199 23.97 108.639 25.986 107.519 27.75C106.399 29.486 104.887 30.858 102.983 31.866C101.079 32.846 98.9646 33.336 96.6406 33.336C94.3446 33.336 92.2446 32.846 90.3406 31.866C88.4646 30.858 86.9666 29.486 85.8466 27.75C84.7266 25.986 84.1666 23.97 84.1666 21.702V2.088H90.2566V21.576ZM125.363 26.49C125.363 29.178 124.831 31.474 123.767 33.378C122.703 35.282 121.219 36.738 119.315 37.746C117.439 38.782 115.255 39.342 112.763 39.426V33.504C114.667 33.392 116.221 32.804 117.425 31.74C118.629 30.676 119.231 28.884 119.231 26.364V2.088H125.363V26.49ZM129.053 33L142.997 0.869998H143.333L157.277 33H150.221L141.317 10.404L145.727 7.38L135.059 33H129.053ZM138.587 21.828H147.869L150.011 26.952H136.697L138.587 21.828ZM189.461 34.26L166.025 13.092L167.831 14.1L167.957 33H161.783V0.869998H162.035L184.967 21.954L183.623 21.366L183.497 2.088H189.629V34.26H189.461Z" fill="white"/>
</svg>
