<svg width="33" height="32" viewBox="0 0 33 32" fill="none" xmlns="http://www.w3.org/2000/svg">
<path d="M6.61634 7.14507C6.61634 6.47338 6.09415 5.92885 5.45002 5.92885H1.84596C1.05154 5.92885 0.492518 5.11729 0.838678 4.37162C1.59543 2.74148 2.98678 0.671875 5.1734 0.671875H26.4176C26.4435 0.671875 26.4657 0.67244 26.4914 0.674972C26.9555 0.720658 31.8843 1.34844 32.2281 7.43083C32.5771 13.608 31.9128 24.0045 31.8694 24.6701C31.868 24.6932 31.8663 24.7116 31.8632 24.7345C31.7995 25.1942 30.9483 30.662 26.4564 31.0872C25.1768 31.2083 24.0582 31.2633 23.1082 31.2793C21.9524 31.2988 21.3353 29.2692 21.8661 28.1982C22.3491 27.2236 22.7375 25.9558 22.8492 24.3281C23.1432 20.0429 23.1975 10.5176 23.2075 7.14295C23.2095 6.47122 22.6877 5.92885 22.0435 5.92885H18.2437C17.5996 5.92885 17.0774 6.47338 17.0774 7.14507V20.9487C17.0774 25.8302 14.9131 26.2058 12.388 26.2058C9.86289 26.2058 6.61634 26.5812 6.61634 20.9487V7.14507Z" fill="url(#paint0_linear_1382_19162)"/>
<defs>
<linearGradient id="paint0_linear_1382_19162" x1="29.4209" y1="0.671876" x2="10.5734" y2="28.2412" gradientUnits="userSpaceOnUse">
<stop stop-color="#BA4AFF"/>
<stop offset="0.272319" stop-color="#9055FF"/>
<stop offset="1" stop-color="#13E2DA"/>
</linearGradient>
</defs>
</svg>
