<svg width="147" height="134" viewBox="0 0 147 134" fill="none" xmlns="http://www.w3.org/2000/svg">
<path d="M29.4916 22.9379H0.501021C2.30953 17.4412 9.13548 0 22.9379 0H119.605C119.605 0 144.181 1.63842 145.82 29.4916C147.458 57.3447 144.181 104.859 144.181 104.859C144.181 104.859 140.904 130.775 119.605 132.712C98.3054 134.649 86.8364 132.712 86.8364 132.712C86.8364 132.712 101.582 126.158 103.221 103.22C104.859 80.2826 104.859 22.9379 104.859 22.9379H77.0059V88.4747C77.0059 109.774 67.1753 111.413 55.7064 111.413C44.2374 111.413 29.4916 113.051 29.4916 88.4747V22.9379Z" fill="#b0ed01"/>
</svg>
